<?xml version="1.0" standalone="no"?>
<!DOCTYPE svg PUBLIC "-//W3C//DTD SVG 20010904//EN"
 "http://www.w3.org/TR/2001/REC-SVG-20010904/DTD/svg10.dtd">
<svg version="1.0" xmlns="http://www.w3.org/2000/svg"
 width="300.000000pt" height="300.000000pt" viewBox="0 0 300.000000 300.000000"
 preserveAspectRatio="xMidYMid meet">
<metadata>
Created by potrace 1.14, written by Peter Selinger 2001-2017
</metadata>
<g transform="translate(0.000000,300.000000) scale(0.100000,-0.100000)"
fill="#000000" stroke="none">
<path d="M1421 2902 c-5 -2 -304 -594 -664 -1315 l-655 -1312 -4 -80 c-3 -44
-3 -84 -1 -90 4 -14 2784 -8 2797 5 14 14 14 128 1 165 -6 17 -131 271 -279
565 -730 1453 -1029 2046 -1035 2051 -7 8 -143 17 -160 11z m175 -627 c47 -94
100 -197 117 -230 17 -33 31 -62 32 -65 1 -3 97 -196 215 -430 212 -422 531
-1063 563 -1130 8 -19 13 -37 11 -40 -6 -6 -2074 -9 -2074 -3 0 3 218 442 484
976 266 535 498 1003 515 1041 20 44 35 66 41 60 6 -6 49 -86 96 -179z"/>
</g>
</svg>
